<svg width="196" height="35" viewBox="0 0 196 35" fill="none" xmlns="http://www.w3.org/2000/svg">
<path d="M101.435 17.5C101.435 26.3369 94.2729 33.5 85.4393 33.5C76.6057 33.5 69.444 26.3369 69.444 17.5C69.444 8.66307 76.6057 1.5 85.4393 1.5C94.2729 1.5 101.435 8.66307 101.435 17.5Z" stroke="white" stroke-width="3"/>
<path d="M126.556 17.5C126.556 26.3369 119.394 33.5 110.561 33.5C101.727 33.5 94.5654 26.3369 94.5654 17.5C94.5654 8.66307 101.727 1.5 110.561 1.5C119.394 1.5 126.556 8.66307 126.556 17.5Z" stroke="white" stroke-width="3"/>
<path d="M195.061 18.5607C195.646 17.9749 195.646 17.0251 195.061 16.4393L185.515 6.8934C184.929 6.30761 183.979 6.30761 183.393 6.8934C182.808 7.47919 182.808 8.42893 183.393 9.01472L191.879 17.5L183.393 25.9853C182.808 26.5711 182.808 27.5208 183.393 28.1066C183.979 28.6924 184.929 28.6924 185.515 28.1066L195.061 18.5607ZM149.14 19H194V16H149.14V19Z" fill="white"/>
<path d="M0.93939 16.4393C0.353605 17.0251 0.353605 17.9749 0.93939 18.5607L10.4853 28.1066C11.0711 28.6924 12.0209 28.6924 12.6067 28.1066C13.1924 27.5208 13.1924 26.5711 12.6067 25.9853L4.12137 17.5L12.6067 9.01472C13.1924 8.42893 13.1924 7.47919 12.6067 6.8934C12.0209 6.30761 11.0711 6.30761 10.4853 6.8934L0.93939 16.4393ZM46.8599 16H2.00005V19H46.8599V16Z" fill="white"/>
</svg>
